<?xml version="1.0" encoding="UTF-8"?>
<!DOCTYPE svg PUBLIC "-//W3C//DTD SVG 1.1//EN" "http://www.w3.org/Graphics/SVG/1.1/DTD/svg11.dtd">
<!-- Creator: CorelDRAW 2021 (64-Bit) -->
<svg xmlns="http://www.w3.org/2000/svg" xml:space="preserve" width="43.3492mm" height="43.3492mm" version="1.1" style="shape-rendering:geometricPrecision; text-rendering:geometricPrecision; image-rendering:optimizeQuality; fill-rule:evenodd; clip-rule:evenodd"
viewBox="0 0 4334.92 4334.92"
 xmlns:xlink="http://www.w3.org/1999/xlink"
 xmlns:xodm="http://www.corel.com/coreldraw/odm/2003">
 <defs>
  <style type="text/css">
   <![CDATA[
    .fil0 {fill:#FAFAFA}
    .fil1 {fill:#FAFAFA;fill-rule:nonzero}
   ]]>
  </style>
 </defs>
 <g id="Capa_x0020_1">
  <metadata id="CorelCorpID_0Corel-Layer"/>
  <g id="_1385854044528">
   <g>
    <path class="fil0" d="M3531.24 1287.33c339.93,240.91 533.03,677.79 420.6,1121.82 -90.12,355.89 -478.33,747.58 -1005.53,754.41l0 44.6c527.2,0 944.66,-407.74 1028.34,-797.35 96.38,-448.72 -79.69,-872.17 -443.41,-1123.48z"/>
    <path class="fil0" d="M3749.94 2875.62c37.42,-136.04 264.24,-202.05 403.22,-180.74 -27.15,33.33 -114.17,219.31 -403.22,180.74z"/>
    <path class="fil0" d="M3927.77 2631.72c56.19,-112.12 187.24,-177.18 357.49,-159.01 -15.35,40.49 -154.43,186.1 -357.49,159.01z"/>
    <path class="fil0" d="M3692.56 2838.17c99.5,-167.44 57.52,-309.12 -23.77,-423.85 -17.64,39.21 -147.68,233.17 23.77,423.85z"/>
    <path class="fil0" d="M3891.31 2567.75c37,-145.32 -37.49,-286.73 -128.97,-353.74 -12.4,86.52 -39.18,250.28 128.97,353.74z"/>
    <path class="fil0" d="M4004.4 2400.33c0.27,-96.95 55.14,-226.68 244.95,-285.48 0.09,108.93 -95.08,234.29 -244.95,285.48z"/>
    <path class="fil0" d="M3765.65 1981.26c123.09,52.79 168.04,108.62 202.51,276.33 -43.24,-2.31 -215.29,-84.42 -202.51,-276.33z"/>
    <path class="fil0" d="M4186.81 1831.02c-58.88,25.25 -182.41,80.78 -182.41,262.76 114.3,-33.67 188.53,-170.95 182.41,-262.76z"/>
    <path class="fil0" d="M3723.95 1780.16c107.68,1.03 189.26,65.23 256.22,182.24 -67,10.28 -206.24,-35.9 -256.22,-182.24z"/>
    <path class="fil0" d="M4004.11 1527.21c-50.81,52.72 -116.9,204.87 -23.94,329.02 88.85,-79.4 74.43,-262.73 23.94,-329.02z"/>
    <path class="fil0" d="M3840.36 1332.04c-56.35,68.15 -84.34,180.78 -15.57,258.11 55.04,-62.94 66.06,-191.82 15.57,-258.11z"/>
    <path class="fil0" d="M3596.26 1568.99c21.86,71.88 163.07,181.73 276.52,156.73 -44.26,-104.47 -173.86,-170.12 -276.52,-156.73z"/>
    <path class="fil0" d="M3463.44 1376.28c12.69,41.73 148.3,120.53 251.17,76.51 -25.69,-60.65 -185.13,-112.17 -251.17,-76.51z"/>
    <path class="fil0" d="M3582.46 1192.68c-12.87,74.86 63.59,151.1 126.74,171.87 11.02,-50.19 -46.65,-148.41 -126.74,-171.87z"/>
    <path class="fil0" d="M3274.54 1192.68c19.86,56.55 157.3,131.58 264.71,85.94 -44.13,-58.61 -173.12,-122.29 -264.71,-85.94z"/>
   </g>
   <g>
    <path class="fil0" d="M780.35 1292.09c-339.93,240.91 -533.03,677.79 -420.6,1121.82 90.12,355.89 478.33,747.58 1005.53,754.41l0 44.6c-527.2,0 -944.66,-407.74 -1028.34,-797.35 -96.38,-448.72 79.69,-872.17 443.41,-1123.48z"/>
    <path class="fil0" d="M561.65 2880.38c-37.42,-136.04 -264.24,-202.05 -403.22,-180.74 27.15,33.33 114.17,219.31 403.22,180.74z"/>
    <path class="fil0" d="M383.82 2636.48c-56.19,-112.12 -187.24,-177.18 -357.49,-159.01 15.35,40.49 154.43,186.1 357.49,159.01z"/>
    <path class="fil0" d="M619.03 2842.93c-99.5,-167.44 -57.52,-309.12 23.77,-423.85 17.64,39.21 147.68,233.17 -23.77,423.85z"/>
    <path class="fil0" d="M420.28 2572.51c-37,-145.32 37.49,-286.73 128.97,-353.74 12.4,86.52 39.18,250.28 -128.97,353.74z"/>
    <path class="fil0" d="M307.19 2405.09c-0.27,-96.95 -55.14,-226.68 -244.95,-285.48 -0.09,108.93 95.08,234.29 244.95,285.48z"/>
    <path class="fil0" d="M545.94 1986.02c-123.09,52.79 -168.04,108.62 -202.51,276.33 43.24,-2.31 215.29,-84.42 202.51,-276.33z"/>
    <path class="fil0" d="M124.78 1835.78c58.88,25.25 182.41,80.78 182.41,262.76 -114.3,-33.67 -188.53,-170.95 -182.41,-262.76z"/>
    <path class="fil0" d="M587.64 1784.92c-107.68,1.03 -189.26,65.23 -256.22,182.24 67,10.28 206.24,-35.9 256.22,-182.24z"/>
    <path class="fil0" d="M307.48 1531.97c50.81,52.72 116.9,204.87 23.94,329.02 -88.85,-79.4 -74.43,-262.73 -23.94,-329.02z"/>
    <path class="fil0" d="M471.23 1336.8c56.35,68.15 84.34,180.78 15.57,258.11 -55.04,-62.94 -66.06,-191.82 -15.57,-258.11z"/>
    <path class="fil0" d="M715.33 1573.75c-21.86,71.88 -163.07,181.73 -276.52,156.73 44.26,-104.47 173.86,-170.12 276.52,-156.73z"/>
    <path class="fil0" d="M848.15 1381.04c-12.69,41.73 -148.3,120.53 -251.17,76.51 25.69,-60.65 185.13,-112.17 251.17,-76.51z"/>
    <path class="fil0" d="M729.13 1197.44c12.87,74.86 -63.59,151.1 -126.74,171.87 -11.02,-50.19 46.65,-148.41 126.74,-171.87z"/>
    <path class="fil0" d="M1037.05 1197.44c-19.86,56.55 -157.3,131.58 -264.71,85.94 44.13,-58.61 173.12,-122.29 264.71,-85.94z"/>
   </g>
   <path class="fil1" d="M1640.4 1287.11l27.66 0 48.4 136.31 -4.2 -1.73 35.32 -91.37 11.11 32.35 -47.17 110.14 -71.12 -185.7zm85.69 0l23.96 0 52.35 134.34 -4.94 -0.99 46.18 -133.35 25.43 0 -70.13 185.45 -72.85 -185.45z"/>
   <polygon id="_1" class="fil1" points="1905.13,1286.37 1928.83,1286.12 1928.59,1464.66 1904.88,1464.66 "/>
   <polygon id="_2" class="fil1" points="2134.79,1470.34 1996.75,1330.32 2003.66,1332.05 2004.15,1464.66 1980.2,1464.66 1980.2,1280.69 1981.44,1280.69 2117.99,1421.2 2112.31,1419.96 2111.82,1286.12 2135.53,1286.12 2135.53,1470.34 "/>
   <polygon id="_3" class="fil1" points="2341.48,1470.34 2203.44,1330.32 2210.35,1332.05 2210.84,1464.66 2186.89,1464.66 2186.89,1280.69 2188.13,1280.69 2324.68,1421.2 2319,1419.96 2318.51,1286.12 2342.22,1286.12 2342.22,1470.34 "/>
   <polygon id="_4" class="fil1" points="2393.83,1286.37 2509.64,1286.12 2509.4,1309.09 2417.53,1309.09 2417.29,1363.66 2499.77,1363.41 2499.52,1386.13 2417.53,1386.38 2417.29,1441.69 2513.1,1441.69 2512.85,1464.66 2393.58,1464.66 "/>
   <path id="_5" class="fil1" d="M2601.99 1286.12c9.06,0 17.41,1.2 25.07,3.58 7.65,2.39 14.32,5.93 20,10.62 5.68,4.69 10.13,10.46 13.34,17.29 3.21,6.83 4.81,14.77 4.81,23.83 0,7.08 -1.03,13.99 -3.09,20.74 -2.05,6.75 -5.47,12.88 -10.24,18.4 -4.78,5.51 -10.99,9.96 -18.65,13.33 -7.65,3.38 -17.08,5.06 -28.27,5.06l-26.43 0 0 65.69 -23.95 0 0 -178.54 47.41 0zm2.47 89.89c7.08,0 12.97,-1.07 17.66,-3.21 4.69,-2.14 8.35,-4.9 10.99,-8.27 2.63,-3.38 4.53,-7.04 5.68,-10.99 1.15,-3.95 1.73,-7.66 1.73,-11.12 0,-3.62 -0.62,-7.36 -1.86,-11.23 -1.23,-3.87 -3.21,-7.45 -5.92,-10.74 -2.72,-3.3 -6.26,-6.01 -10.62,-8.15 -4.36,-2.14 -9.67,-3.21 -15.93,-3.21l-27.66 0 0 66.92 25.93 0zm29.39 13.58l46.67 75.07 -27.66 0 -47.41 -74.33 28.4 -0.74z"/>
   <path class="fil1" d="M1214.46 1661.09c29.75,0 53.43,6.01 71.02,18.04 17.59,12.03 26.38,29.94 26.38,53.74 0,17.6 -4.33,32.28 -13,44.05 -8.66,11.77 -20.43,20.56 -35.31,26.39 -14.87,5.82 -31.88,8.73 -51.03,8.73l-8.92 -30.27c23.54,0 44.43,3.23 62.67,9.7 18.24,6.47 32.66,15.72 43.27,27.75 10.6,12.03 15.91,26.45 15.91,43.26 0,15.53 -2.79,28.65 -8.35,39.39 -5.56,10.74 -13.06,19.4 -22.5,26 -9.45,6.6 -20.12,11.38 -32.02,14.36 -11.9,2.97 -24.19,4.46 -36.86,4.46l-95.08 0 0 -285.6 83.82 0zm6.6 116.8c11.12,0 19.34,-3.36 24.64,-10.09 5.3,-6.73 7.96,-14.36 7.96,-22.9 0,-9.83 -3.3,-17.2 -9.9,-22.11 -6.6,-4.92 -15.46,-7.38 -26.58,-7.38l-30.27 0 0 62.48 34.15 0zm1.94 116.41c8.28,0 15.78,-1.1 22.51,-3.3 6.72,-2.19 12.03,-5.69 15.91,-10.47 3.88,-4.79 5.82,-10.8 5.82,-18.05 0,-8.28 -2.33,-14.55 -6.99,-18.82 -4.65,-4.27 -10.67,-7.24 -18.04,-8.92 -7.37,-1.68 -15.07,-2.52 -23.09,-2.52l-32.21 0 0 62.08 36.09 0z"/>
   <polygon id="_1_0" class="fil1" points="1381.71,1661.09 1576.52,1661.09 1576.52,1715.41 1437.98,1715.41 1437.98,1776.34 1560.61,1776.34 1560.61,1830.66 1437.98,1830.66 1437.98,1892.36 1581.95,1892.36 1581.95,1946.69 1381.71,1946.69 "/>
   <path id="_2_1" class="fil1" d="M1792.66 1730.16c-10.87,-5.95 -21.93,-10.87 -33.18,-14.75 -11.25,-3.88 -21.8,-5.82 -31.63,-5.82 -12.15,0 -21.73,2.46 -28.71,7.37 -6.99,4.92 -10.48,12.29 -10.48,22.12 0,6.73 2.65,12.74 7.96,18.05 5.3,5.3 12.15,10.02 20.56,14.16 8.41,4.14 17.14,7.89 26.2,11.25 8.27,3.11 16.49,6.8 24.64,11.06 8.15,4.27 15.45,9.58 21.92,15.91 6.47,6.34 11.64,14.23 15.52,23.68 3.88,9.44 5.82,21.01 5.82,34.73 0,14.48 -3.75,27.94 -11.25,40.35 -7.5,12.42 -18.5,22.45 -32.98,30.08 -14.49,7.63 -32.34,11.44 -53.55,11.44 -10.87,0 -21.93,-1.1 -33.18,-3.29 -11.26,-2.2 -22.31,-5.57 -33.18,-10.09 -10.87,-4.53 -21.34,-10.29 -31.43,-17.27l24.83 -43.85c6.73,4.91 14.04,9.25 21.93,13 7.89,3.75 15.84,6.66 23.86,8.73 8.02,2.07 15.4,3.1 22.12,3.1 6.73,0 13.52,-0.97 20.37,-2.91 6.86,-1.94 12.55,-5.24 17.08,-9.89 4.53,-4.66 6.79,-11.13 6.79,-19.4 0,-5.7 -1.88,-10.87 -5.63,-15.53 -3.75,-4.65 -8.79,-8.92 -15.13,-12.8 -6.34,-3.88 -13.26,-7.25 -20.76,-10.09 -8.8,-3.36 -17.85,-7.24 -27.17,-11.64 -9.31,-4.4 -18.04,-9.77 -26.19,-16.11 -8.15,-6.33 -14.74,-14.23 -19.79,-23.67 -5.04,-9.44 -7.57,-21.02 -7.57,-34.73 0,-16.56 3.69,-30.91 11.06,-43.07 7.38,-12.16 17.79,-21.8 31.24,-28.91 13.45,-7.12 28.98,-11.06 46.57,-11.84 23.02,0 41.71,2.72 56.07,8.15 14.36,5.43 27.23,11.9 38.61,19.4l-21.34 43.08z"/>
   <polygon id="_3_2" class="fil1" points="1846.98,1661.09 2039.46,1661.09 2039.46,1715.41 1969.99,1715.41 1969.99,1946.69 1913.73,1946.69 1913.73,1715.41 1846.98,1715.41 "/>
   <path id="_4_3" class="fil1" d="M2270.35 1841.14c0,9.05 2.72,17.72 8.15,26 5.43,8.28 12.61,15 21.54,20.18 8.92,5.17 18.69,7.76 29.29,7.76 11.65,0 21.99,-2.59 31.05,-7.76 9.05,-5.18 16.23,-11.9 21.54,-20.18 5.3,-8.28 7.95,-16.95 7.95,-26l0 -180.05 55.49 0 0 181.21c0,20.96 -5.17,39.52 -15.52,55.69 -10.35,16.17 -24.32,28.84 -41.91,38.03 -17.59,9.18 -37.12,13.77 -58.6,13.77l0 0c-21.21,0 -40.55,-4.59 -58.01,-13.77 -17.46,-9.19 -31.37,-21.86 -41.71,-38.03 -10.35,-16.17 -15.53,-34.73 -15.53,-55.69l0 -181.21 56.27 0 0 180.05z"/>
   <path id="_5_4" class="fil1" d="M2665.78 1730.16c-10.87,-5.95 -21.93,-10.87 -33.18,-14.75 -11.25,-3.88 -21.8,-5.82 -31.63,-5.82 -12.15,0 -21.73,2.46 -28.71,7.37 -6.99,4.92 -10.48,12.29 -10.48,22.12 0,6.73 2.65,12.74 7.96,18.05 5.3,5.3 12.15,10.02 20.56,14.16 8.41,4.14 17.14,7.89 26.2,11.25 8.27,3.11 16.49,6.8 24.64,11.06 8.15,4.27 15.45,9.58 21.92,15.91 6.47,6.34 11.64,14.23 15.52,23.68 3.88,9.44 5.82,21.01 5.82,34.73 0,14.48 -3.75,27.94 -11.25,40.35 -7.5,12.42 -18.5,22.45 -32.98,30.08 -14.49,7.63 -32.34,11.44 -53.55,11.44 -10.87,0 -21.93,-1.1 -33.18,-3.29 -11.26,-2.2 -22.31,-5.57 -33.18,-10.09 -10.87,-4.53 -21.34,-10.29 -31.43,-17.27l24.83 -43.85c6.73,4.91 14.04,9.25 21.93,13 7.89,3.75 15.84,6.66 23.86,8.73 8.02,2.07 15.4,3.1 22.12,3.1 6.73,0 13.52,-0.97 20.37,-2.91 6.86,-1.94 12.55,-5.24 17.08,-9.89 4.53,-4.66 6.79,-11.13 6.79,-19.4 0,-5.7 -1.88,-10.87 -5.63,-15.53 -3.75,-4.65 -8.79,-8.92 -15.13,-12.8 -6.34,-3.88 -13.26,-7.25 -20.76,-10.09 -8.8,-3.36 -17.85,-7.24 -27.17,-11.64 -9.31,-4.4 -18.04,-9.77 -26.19,-16.11 -8.15,-6.33 -14.74,-14.23 -19.79,-23.67 -5.04,-9.44 -7.57,-21.02 -7.57,-34.73 0,-16.56 3.69,-30.91 11.06,-43.07 7.38,-12.16 17.79,-21.8 31.24,-28.91 13.45,-7.12 28.98,-11.06 46.57,-11.84 23.02,0 41.71,2.72 56.07,8.15 14.36,5.43 27.23,11.9 38.61,19.4l-21.34 43.08z"/>
   <polygon id="_6" class="fil1" points="2739.5,1661.09 2934.31,1661.09 2934.31,1715.41 2795.77,1715.41 2795.77,1776.34 2918.4,1776.34 2918.4,1830.66 2795.77,1830.66 2795.77,1892.36 2939.74,1892.36 2939.74,1946.69 2739.5,1946.69 "/>
   <path id="_7" class="fil1" d="M3084.48 1661.09c17.85,0 33.76,2.26 47.73,6.79 13.97,4.52 25.68,10.99 35.12,19.4 9.44,8.41 16.62,18.5 21.54,30.27 4.91,11.77 7.37,25.03 7.37,39.77 0,11.64 -1.75,23.28 -5.24,34.93 -3.49,11.64 -9.18,22.24 -17.07,31.82 -7.89,9.57 -18.31,17.26 -31.24,23.09 -12.94,5.82 -28.98,8.73 -48.12,8.73l-40.36 0 0 90.8 -56.27 0 0 -285.6 86.54 0zm9.7 140.47c8.54,0 15.65,-1.42 21.34,-4.27 5.7,-2.84 10.16,-6.47 13.39,-10.86 3.24,-4.4 5.56,-8.99 6.99,-13.78 1.42,-4.79 2.13,-9.25 2.13,-13.39 0,-3.1 -0.45,-7.05 -1.36,-11.83 -0.9,-4.79 -2.78,-9.64 -5.62,-14.56 -2.85,-4.91 -7.18,-9.05 -13,-12.41 -5.82,-3.37 -13.65,-5.05 -23.48,-5.05l-40.36 0 0 86.15 39.97 0zm52.78 34.92l70.62 110.21 -65.58 0 -72.18 -108.65 67.14 -1.56z"/>
   <polygon id="_8" class="fil1" points="917.6,2056.09 1112.41,2056.09 1112.41,2110.41 973.87,2110.41 973.87,2171.34 1096.5,2171.34 1096.5,2225.66 973.87,2225.66 973.87,2287.36 1117.84,2287.36 1117.84,2341.69 917.6,2341.69 "/>
   <path id="_9" class="fil1" d="M1152.76 2056.09l71.79 0 186.27 285.6 -72.57 0 -185.49 -285.6zm-3.88 285.6l101.67 -159.88 26.39 56.66 -58.21 103.22 -69.85 0zm131.94 -180.83l58.98 -104.77 68.3 0 -98.18 153.27 -29.1 -48.5z"/>
   <path id="_10" class="fil1" d="M1543.92 2056.09c23.54,0 43.46,3.94 59.76,11.83 16.3,7.89 28.72,19.02 37.25,33.37 8.54,14.36 12.81,31.37 12.81,51.03 0,11.64 -1.75,23.35 -5.24,35.12 -3.49,11.77 -9.06,22.44 -16.69,32.01 -7.63,9.58 -17.85,17.27 -30.65,23.09 -12.81,5.82 -28.52,8.73 -47.15,8.73l-40.36 0 0 90.42 -56.27 0 0 -285.6 86.54 0zm9.7 140.47c8.54,0 15.65,-1.49 21.34,-4.46 5.7,-2.98 10.16,-6.73 13.39,-11.26 3.24,-4.52 5.56,-9.25 6.99,-14.16 1.42,-4.92 2.13,-9.18 2.13,-12.81 0,-2.84 -0.45,-6.66 -1.36,-11.44 -0.9,-4.79 -2.78,-9.64 -5.62,-14.56 -2.85,-4.91 -7.18,-9.05 -13,-12.41 -5.82,-3.37 -13.65,-5.05 -23.48,-5.05l-40.36 0 0 86.15 39.97 0z"/>
   <polygon id="_11" class="fil1" points="1704.18,2056.09 1898.99,2056.09 1898.99,2110.41 1760.45,2110.41 1760.45,2171.34 1883.08,2171.34 1883.08,2225.66 1760.45,2225.66 1760.45,2287.36 1904.42,2287.36 1904.42,2341.69 1704.18,2341.69 "/>
   <path id="_12" class="fil1" d="M2049.16 2056.09c17.85,0 33.76,2.26 47.73,6.79 13.97,4.52 25.68,10.99 35.12,19.4 9.44,8.41 16.62,18.5 21.54,30.27 4.91,11.77 7.37,25.03 7.37,39.77 0,11.64 -1.75,23.28 -5.24,34.93 -3.49,11.64 -9.18,22.24 -17.07,31.82 -7.89,9.57 -18.31,17.26 -31.24,23.09 -12.94,5.82 -28.98,8.73 -48.12,8.73l-40.36 0 0 90.8 -56.27 0 0 -285.6 86.54 0zm9.7 140.47c8.54,0 15.65,-1.42 21.34,-4.27 5.7,-2.84 10.16,-6.47 13.39,-10.86 3.24,-4.4 5.56,-8.99 6.99,-13.78 1.42,-4.79 2.13,-9.25 2.13,-13.39 0,-3.1 -0.45,-7.05 -1.36,-11.83 -0.9,-4.79 -2.78,-9.64 -5.62,-14.56 -2.85,-4.91 -7.18,-9.05 -13,-12.41 -5.82,-3.37 -13.65,-5.05 -23.48,-5.05l-40.36 0 0 86.15 39.97 0zm52.78 34.92l70.62 110.21 -65.58 0 -72.18 -108.65 67.14 -1.56z"/>
   <polygon id="_13" class="fil1" points="2228.82,2056.09 2285.09,2056.09 2285.09,2341.69 2228.82,2341.69 "/>
   <polygon id="_14" class="fil1" points="2358.82,2056.09 2553.63,2056.09 2553.63,2110.41 2415.09,2110.41 2415.09,2171.34 2537.72,2171.34 2537.72,2225.66 2415.09,2225.66 2415.09,2287.36 2559.06,2287.36 2559.06,2341.69 2358.82,2341.69 "/>
   <polygon id="_15" class="fil1" points="2872.99,2353.33 2656.46,2157.75 2673.14,2167.07 2674.31,2341.69 2617.26,2341.69 2617.26,2044.83 2619.59,2044.83 2831.47,2239.63 2819.05,2234.2 2817.89,2056.09 2874.54,2056.09 2874.54,2353.33 "/>
   <path id="_16" class="fil1" d="M3162.48 2318.02c-3.11,2.59 -8.86,6.08 -17.27,10.48 -8.41,4.39 -18.69,8.27 -30.85,11.64 -12.16,3.36 -25.61,4.91 -40.36,4.65 -22.5,-0.51 -42.62,-4.59 -60.34,-12.22 -17.72,-7.63 -32.72,-18.04 -45.01,-31.24 -12.29,-13.19 -21.67,-28.32 -28.14,-45.4 -6.46,-17.07 -9.7,-35.31 -9.7,-54.71 0,-21.73 3.3,-41.65 9.9,-59.76 6.59,-18.11 16.04,-33.76 28.33,-46.96 12.28,-13.19 26.96,-23.41 44.04,-30.65 17.07,-7.25 35.96,-10.87 56.65,-10.87 19.15,0 36.09,2.59 50.84,7.76 14.74,5.18 26.77,10.74 36.09,16.69l-22.12 53.16c-6.47,-4.91 -15.07,-10.02 -25.81,-15.33 -10.73,-5.3 -23.09,-7.95 -37.06,-7.95 -10.86,0 -21.27,2.26 -31.23,6.79 -9.96,4.53 -18.76,10.93 -26.39,19.21 -7.63,8.28 -13.65,17.91 -18.05,28.91 -4.39,10.99 -6.59,22.96 -6.59,35.89 0,13.71 2,26.26 6.01,37.64 4.01,11.39 9.77,21.15 17.27,29.3 7.5,8.15 16.49,14.42 26.97,18.82 10.48,4.4 22.31,6.6 35.51,6.6 15.26,0 28.32,-2.46 39.19,-7.38 10.87,-4.91 19.14,-10.08 24.84,-15.52l23.28 50.45z"/>
   <polygon id="_17" class="fil1" points="3218.74,2056.09 3413.55,2056.09 3413.55,2110.41 3275.01,2110.41 3275.01,2171.34 3397.64,2171.34 3397.64,2225.66 3275.01,2225.66 3275.01,2287.36 3418.98,2287.36 3418.98,2341.69 3218.74,2341.69 "/>
   <path class="fil1" d="M1026.64 2529.54l27.66 0 48.4 136.31 -4.2 -1.73 35.32 -91.37 11.11 32.35 -47.17 110.14 -71.12 -185.7zm85.69 0l23.96 0 52.35 134.34 -4.94 -0.99 46.18 -133.35 25.43 0 -70.13 185.45 -72.85 -185.45z"/>
   <path id="_1_5" class="fil1" d="M1309.63 2709.56c-11.68,0 -21.73,-2.35 -30.12,-7.04 -8.4,-4.69 -14.86,-11.11 -19.39,-19.26 -4.52,-8.15 -6.79,-17.49 -6.79,-28.03 0,-10.04 2.55,-19.18 7.66,-27.41 5.1,-8.23 11.93,-14.81 20.49,-19.75 8.56,-4.94 18.11,-7.41 28.65,-7.41 13.5,0 24.69,3.95 33.58,11.85 8.89,7.9 14.9,18.77 18.03,32.6l-84.21 29.63 -5.43 -13.58 69.14 -25.19 -4.94 3.21c-1.97,-5.43 -5.26,-10.16 -9.87,-14.2 -4.61,-4.03 -10.62,-6.05 -18.03,-6.05 -6.26,0 -11.85,1.53 -16.79,4.57 -4.94,3.05 -8.81,7.2 -11.61,12.47 -2.8,5.27 -4.2,11.28 -4.2,18.03 0,7.08 1.49,13.29 4.45,18.64 2.96,5.35 7.04,9.55 12.22,12.6 5.19,3.04 11.07,4.56 17.66,4.56 4.44,0 8.76,-0.82 12.96,-2.47 4.2,-1.64 8.11,-3.78 11.73,-6.42l10.62 17.04c-5.1,3.46 -10.82,6.26 -17.16,8.4 -6.34,2.14 -12.55,3.21 -18.65,3.21z"/>
   <path id="_2_6" class="fil1" d="M1452.86 2709.56c-9.38,0 -17.66,-2.06 -24.82,-6.17 -7.16,-4.12 -12.88,-9.31 -17.16,-15.56l2.72 -7.16 0 26.42 -22.97 0 0 -191.13 22.72 0 0 112.36 -0.74 -8.65c4.12,-5.59 10,-10.16 17.66,-13.7 7.65,-3.54 16.17,-5.31 25.55,-5.31 9.22,0 17.62,2.22 25.19,6.67 7.58,4.44 13.63,10.66 18.15,18.64 4.53,7.98 6.79,17.49 6.79,28.52 0,11.53 -2.43,21.4 -7.28,29.63 -4.86,8.24 -11.32,14.53 -19.39,18.9 -8.06,4.36 -16.87,6.54 -26.42,6.54zm-4.69 -19.51c6.58,0 12.51,-1.56 17.78,-4.69 5.27,-3.13 9.38,-7.37 12.35,-12.72 2.96,-5.35 4.44,-11.48 4.44,-18.4 0,-6.58 -1.52,-12.55 -4.57,-17.9 -3.04,-5.35 -7.16,-9.59 -12.34,-12.72 -5.19,-3.12 -11.08,-4.69 -17.66,-4.69 -5.6,0 -10.78,1.07 -15.56,3.21 -4.77,2.14 -8.81,5.06 -12.1,8.77 -3.29,3.7 -5.6,8.02 -6.91,12.96l0 20.5c1.31,4.94 3.54,9.34 6.66,13.21 3.13,3.87 7.08,6.91 11.86,9.14 4.77,2.22 10.12,3.33 16.05,3.33z"/>
   <path id="_3_7" class="fil1" d="M1599.3 2709.56c-9.38,0 -17.66,-2.06 -24.82,-6.17 -7.16,-4.12 -12.88,-9.31 -17.16,-15.56l2.72 -7.16 0 26.42 -22.97 0 0 -191.13 22.72 0 0 112.36 -0.74 -8.65c4.12,-5.59 10,-10.16 17.66,-13.7 7.65,-3.54 16.17,-5.31 25.55,-5.31 9.22,0 17.62,2.22 25.19,6.67 7.58,4.44 13.63,10.66 18.15,18.64 4.53,7.98 6.79,17.49 6.79,28.52 0,11.53 -2.43,21.4 -7.28,29.63 -4.86,8.24 -11.32,14.53 -19.39,18.9 -8.06,4.36 -16.87,6.54 -26.42,6.54zm-4.69 -19.51c6.58,0 12.51,-1.56 17.78,-4.69 5.27,-3.13 9.38,-7.37 12.35,-12.72 2.96,-5.35 4.44,-11.48 4.44,-18.4 0,-6.58 -1.52,-12.55 -4.57,-17.9 -3.04,-5.35 -7.16,-9.59 -12.34,-12.72 -5.19,-3.12 -11.08,-4.69 -17.66,-4.69 -5.6,0 -10.78,1.07 -15.56,3.21 -4.77,2.14 -8.81,5.06 -12.1,8.77 -3.29,3.7 -5.6,8.02 -6.91,12.96l0 20.5c1.31,4.94 3.54,9.34 6.66,13.21 3.13,3.87 7.08,6.91 11.86,9.14 4.77,2.22 10.12,3.33 16.05,3.33z"/>
   <path id="_4_8" class="fil1" d="M1692.16 2756.23l67.41 -151.37 21.24 0 -65.94 151.37 -22.71 0zm25.18 -48.4l-49.14 -102.97 25.93 0 41.24 91.36 -18.03 11.61z"/>
   <path id="_5_9" class="fil1" d="M1871.43 2707.09l78.04 -185.95 1.48 0 77.78 185.95 -27.41 0 -58.28 -148.41 17.04 -11.11 -65.19 159.52 -23.46 0zm45.69 -67.66l66.42 0 7.9 20.74 -81.24 0 6.92 -20.74z"/>
   <polygon id="_6_10" class="fil1" points="2116.4,2604.86 2146.53,2673.75 2142.08,2674.25 2170.23,2604.86 2192.71,2604.86 2145.79,2713.26 2112.94,2643.13 2083.06,2713.26 2035.65,2604.86 2058.12,2604.86 2089.98,2676.96 2082.08,2675.48 2104.8,2622.64 2096.65,2604.86 "/>
   <path id="_7_11" class="fil1" d="M2256.67 2709.56c-9.55,0 -18.24,-2.06 -26.06,-6.17 -7.82,-4.12 -13.99,-10.17 -18.52,-18.15 -4.52,-7.99 -6.79,-17.74 -6.79,-29.27 0,-11.36 2.39,-21.19 7.16,-29.51 4.78,-8.31 11.16,-14.69 19.14,-19.13 7.99,-4.45 16.75,-6.67 26.3,-6.67 9.55,0 17.62,2.18 24.2,6.54 6.59,4.37 11.61,9.51 15.06,15.44l-1.48 3.95 2.22 -21.73 21.24 0 0 102.23 -22.96 0 0 -26.67 2.47 5.93c-0.66,1.64 -2.1,3.74 -4.33,6.29 -2.22,2.56 -5.18,5.15 -8.89,7.78 -3.7,2.64 -7.94,4.82 -12.71,6.55 -4.78,1.73 -10.13,2.59 -16.05,2.59zm6.17 -19.01c5.76,0 10.95,-1.08 15.56,-3.22 4.61,-2.14 8.43,-5.14 11.48,-9.01 3.04,-3.87 5.14,-8.52 6.3,-13.95l0 -20c-1.32,-4.94 -3.63,-9.26 -6.92,-12.97 -3.29,-3.7 -7.24,-6.58 -11.85,-8.64 -4.61,-2.06 -9.71,-3.09 -15.31,-3.09 -6.09,0 -11.69,1.48 -16.79,4.45 -5.11,2.96 -9.18,7.08 -12.23,12.35 -3.04,5.26 -4.57,11.44 -4.57,18.52 0,6.58 1.57,12.59 4.7,18.02 3.12,5.43 7.32,9.72 12.59,12.84 5.27,3.13 10.95,4.7 17.04,4.7z"/>
   <path id="_8_12" class="fil1" d="M2379.4 2604.86l2.22 29.63 -1.23 -3.95c2.63,-6.26 6.46,-11.57 11.48,-15.93 5.02,-4.36 10.29,-7.74 15.8,-10.12 5.52,-2.39 10.33,-3.58 14.45,-3.58l-1.24 22.71c-7.73,-0.49 -14.52,0.99 -20.37,4.45 -5.84,3.46 -10.45,8.07 -13.83,13.83 -3.37,5.76 -5.06,11.93 -5.06,18.52l0 46.67 -22.72 0 0 -102.23 20.5 0z"/>
   <path id="_9_13" class="fil1" d="M2488.79 2709.56c-9.39,0 -17.91,-2.26 -25.56,-6.79 -7.66,-4.53 -13.71,-10.95 -18.15,-19.26 -4.45,-8.32 -6.67,-17.91 -6.67,-28.77 0,-11.36 2.35,-21.07 7.04,-29.14 4.69,-8.07 11.07,-14.24 19.14,-18.52 8.06,-4.28 17.12,-6.42 27.16,-6.42 8.07,0 15.76,1.73 23.09,5.18 7.33,3.46 13.05,8.24 17.16,14.33l-0.99 8.15 0 -112.36 22.72 0 0 191.13 -22.96 0 0 -25.43 2.47 6.42c-4.78,6.25 -10.95,11.4 -18.52,15.43 -7.58,4.03 -16.22,6.05 -25.93,6.05zm7.16 -19.51c6.09,0 11.52,-1.11 16.3,-3.33 4.77,-2.23 8.72,-5.31 11.85,-9.26 3.13,-3.95 5.35,-8.65 6.67,-14.08l0 -19.26c-1.32,-4.94 -3.67,-9.26 -7.04,-12.96 -3.37,-3.71 -7.41,-6.67 -12.1,-8.89 -4.69,-2.23 -9.92,-3.34 -15.68,-3.34 -6.26,0 -11.98,1.53 -17.16,4.57 -5.19,3.05 -9.35,7.2 -12.47,12.47 -3.13,5.27 -4.7,11.36 -4.7,18.27 0,6.75 1.57,12.8 4.7,18.15 3.12,5.36 7.32,9.64 12.59,12.85 5.27,3.21 10.95,4.81 17.04,4.81z"/>
   <path id="_10_14" class="fil1" d="M2622.39 2709.07c-7.25,0 -14.28,-1.28 -21.12,-3.83 -6.83,-2.55 -12.47,-6.38 -16.91,-11.48l9.63 -13.34c4.28,4.12 8.68,7.2 13.21,9.26 4.53,2.06 9.01,3.09 13.46,3.09 3.29,0 6.34,-0.41 9.14,-1.24 2.79,-0.82 5.06,-2.18 6.79,-4.07 1.72,-1.89 2.59,-4.49 2.59,-7.78 0,-3.62 -1.19,-6.5 -3.58,-8.64 -2.39,-2.14 -5.43,-3.87 -9.14,-5.19 -3.7,-1.32 -7.61,-2.55 -11.73,-3.7 -8.39,-2.8 -14.81,-6.67 -19.26,-11.61 -4.44,-4.94 -6.67,-10.95 -6.67,-18.03 0,-5.43 1.36,-10.49 4.08,-15.18 2.71,-4.69 6.75,-8.52 12.1,-11.49 5.35,-2.96 11.97,-4.44 19.88,-4.44 7.08,0 13.41,0.86 19.01,2.59 5.6,1.73 10.87,4.57 15.81,8.52l-9.14 14.32c-2.96,-3.12 -6.5,-5.43 -10.62,-6.91 -4.12,-1.48 -7.82,-2.3 -11.11,-2.47 -2.8,-0.16 -5.48,0.25 -8.03,1.24 -2.55,0.98 -4.65,2.38 -6.29,4.19 -1.65,1.81 -2.47,3.95 -2.47,6.42 0,3.46 1.15,6.26 3.45,8.4 2.31,2.14 5.31,3.83 9.02,5.06 3.7,1.24 7.36,2.51 10.99,3.83 5.1,1.48 9.63,3.46 13.58,5.93 3.95,2.47 7.12,5.51 9.5,9.13 2.39,3.62 3.58,8.15 3.58,13.58 0,6.1 -1.44,11.73 -4.32,16.92 -2.88,5.19 -7.24,9.3 -13.08,12.35 -5.85,3.04 -13.3,4.57 -22.35,4.57z"/>
   <path id="_11_15" class="fil1" d="M2765.36 2707.09c10.53,-10.21 20.58,-20.25 30.12,-30.13 9.55,-9.87 18.15,-19.42 25.81,-28.64 7.65,-9.22 13.7,-18.15 18.15,-26.79 4.44,-8.65 6.67,-17 6.67,-25.07 0,-5.43 -0.91,-10.08 -2.72,-13.95 -1.81,-3.87 -4.16,-7.04 -7.04,-9.51 -2.88,-2.47 -6.13,-4.32 -9.75,-5.55 -3.62,-1.24 -7.33,-1.86 -11.11,-1.86 -5.44,0 -10.05,0.87 -13.83,2.6 -3.79,1.72 -6.88,3.99 -9.26,6.79 -2.39,2.8 -4.12,5.76 -5.19,8.89 -1.07,3.12 -1.6,6.25 -1.6,9.38 0,5.43 0.82,10.33 2.47,14.69 1.64,4.37 4.03,8.19 7.16,11.49l-14.82 13.08c-3.79,-2.47 -7.04,-5.92 -9.75,-10.37 -2.72,-4.44 -4.78,-9.26 -6.18,-14.44 -1.4,-5.19 -2.1,-9.84 -2.1,-13.96 0,-8.89 2.19,-17.24 6.55,-25.06 4.36,-7.82 10.78,-14.12 19.26,-18.89 8.48,-4.77 18.81,-7.16 30.99,-7.16 10.37,0 19.43,2.39 27.16,7.16 7.74,4.77 13.75,11.07 18.03,18.89 4.28,7.82 6.42,16.42 6.42,25.81 0,8.23 -1.65,16.29 -4.94,24.2 -3.29,7.9 -7.69,15.72 -13.21,23.45 -5.51,7.74 -11.61,15.36 -18.27,22.85 -6.67,7.49 -13.3,15.02 -19.88,22.59l-10.37 -3.46 72.1 0 0 22.97 -110.87 0z"/>
   <path id="_12_16" class="fil1" d="M2963.9 2707.83c-10.05,0 -19.27,-1.89 -27.66,-5.68 -8.4,-3.79 -15.6,-9.26 -21.61,-16.42 -6.01,-7.16 -10.66,-15.85 -13.95,-26.05 -3.29,-10.21 -4.94,-21.65 -4.94,-34.33 0,-13.83 1.56,-25.88 4.69,-36.17 3.13,-10.29 7.7,-18.89 13.71,-25.81 6.01,-6.91 13.21,-12.06 21.6,-15.43 8.4,-3.38 17.78,-5.07 28.16,-5.07 10.04,0 19.22,1.9 27.53,5.68 8.31,3.79 15.47,9.26 21.48,16.43 6.01,7.16 10.7,15.8 14.08,25.92 3.37,10.13 5.06,21.61 5.06,34.45 0,13.01 -1.69,24.61 -5.06,34.82 -3.38,10.21 -8.07,18.85 -14.08,25.93 -6.01,7.08 -13.17,12.47 -21.48,16.17 -8.31,3.71 -17.49,5.56 -27.53,5.56zm-0.25 -22.96c9.55,0 17.57,-2.52 24.07,-7.54 6.51,-5.02 11.41,-12.06 14.7,-21.11 3.29,-9.05 4.94,-19.51 4.94,-31.36 0,-11.85 -1.65,-22.18 -4.94,-30.99 -3.29,-8.81 -8.19,-15.68 -14.7,-20.62 -6.5,-4.94 -14.52,-7.41 -24.07,-7.41 -9.55,0 -17.53,2.51 -23.95,7.53 -6.43,5.02 -11.24,11.98 -14.45,20.87 -3.21,8.89 -4.82,19.26 -4.82,31.11 0,11.69 1.61,22.02 4.82,30.99 3.21,8.98 8.02,15.97 14.45,20.99 6.42,5.02 14.4,7.54 23.95,7.54z"/>
   <path id="_13_17" class="fil1" d="M3053.78 2707.09c10.53,-10.21 20.58,-20.25 30.12,-30.13 9.55,-9.87 18.15,-19.42 25.81,-28.64 7.65,-9.22 13.7,-18.15 18.15,-26.79 4.44,-8.65 6.67,-17 6.67,-25.07 0,-5.43 -0.91,-10.08 -2.72,-13.95 -1.81,-3.87 -4.16,-7.04 -7.04,-9.51 -2.88,-2.47 -6.13,-4.32 -9.75,-5.55 -3.62,-1.24 -7.33,-1.86 -11.11,-1.86 -5.44,0 -10.05,0.87 -13.83,2.6 -3.79,1.72 -6.88,3.99 -9.26,6.79 -2.39,2.8 -4.12,5.76 -5.19,8.89 -1.07,3.12 -1.6,6.25 -1.6,9.38 0,5.43 0.82,10.33 2.47,14.69 1.64,4.37 4.03,8.19 7.16,11.49l-14.82 13.08c-3.79,-2.47 -7.04,-5.92 -9.75,-10.37 -2.72,-4.44 -4.78,-9.26 -6.18,-14.44 -1.4,-5.19 -2.1,-9.84 -2.1,-13.96 0,-8.89 2.19,-17.24 6.55,-25.06 4.36,-7.82 10.78,-14.12 19.26,-18.89 8.48,-4.77 18.81,-7.16 30.99,-7.16 10.37,0 19.43,2.39 27.16,7.16 7.74,4.77 13.75,11.07 18.03,18.89 4.28,7.82 6.42,16.42 6.42,25.81 0,8.23 -1.65,16.29 -4.94,24.2 -3.29,7.9 -7.69,15.72 -13.21,23.45 -5.51,7.74 -11.61,15.36 -18.27,22.85 -6.67,7.49 -13.3,15.02 -19.88,22.59l-10.37 -3.46 72.1 0 0 22.97 -110.87 0z"/>
   <path id="_14_18" class="fil1" d="M3176.51 2667.33l0 0.25 98.53 -124.71 0.74 -0.24 -0.25 107.17 21.24 -0.25 0 18.03 -20.99 0.25 -0.25 39.26 -23.7 0 0.24 -39.76 -75.56 0zm76.8 -70.62l-41.73 54.08 -3.71 -1.24 44.2 0.25 -0.24 -57.54 1.48 4.45z"/>
  </g>
 </g>
</svg>
