<?xml version="1.0" encoding="UTF-8"?>
<!DOCTYPE svg PUBLIC "-//W3C//DTD SVG 1.1//EN" "http://www.w3.org/Graphics/SVG/1.1/DTD/svg11.dtd">
<!-- Creator: CorelDRAW 2021 (64-Bit) -->
<svg xmlns="http://www.w3.org/2000/svg" xml:space="preserve" width="43.3492mm" height="43.3492mm" version="1.1" style="shape-rendering:geometricPrecision; text-rendering:geometricPrecision; image-rendering:optimizeQuality; fill-rule:evenodd; clip-rule:evenodd"
viewBox="0 0 4334.92 4334.92"
 xmlns:xlink="http://www.w3.org/1999/xlink"
 xmlns:xodm="http://www.corel.com/coreldraw/odm/2003">
 <defs>
  <style type="text/css">
   <![CDATA[
    .fil2 {fill:none}
    .fil1 {fill:#121212}
    .fil0 {fill:#E8DAC0}
    .fil3 {fill:#E8DAC0;fill-rule:nonzero}
   ]]>
  </style>
 </defs>
 <g id="Capa_x0020_1">
  <metadata id="CorelCorpID_0Corel-Layer"/>
  <g id="_1990418853200">
   <g>
    <path class="fil0" d="M1164.05 2566.92l116.6 104.8c175.21,159.88 454.87,272.31 710.11,273.83 367.19,2.18 665.27,-204.4 824.73,-378.37 42.26,24.32 116.13,273.68 -220.38,436.06 -649.59,313.48 -1657.44,-1.54 -1431.06,-436.32zm1710.56 -57.89c8.2,-18.95 24.02,-34.75 38,-47.91 28.52,20.22 44.21,43.6 100.76,45.38 83.1,2.61 238.16,-81.59 321.75,-110.82 48.53,32.89 105.03,161.1 115.5,238.2 45.25,333.44 -315.71,549.55 -581.04,653.55 -508.26,199.24 -1170.16,190.6 -1686.14,24.41 -176.58,-56.88 -323.29,-138.62 -462,-253.62 -103.06,-85.44 -244.23,-281.94 -169.28,-499.03 45.84,-132.79 137.09,-219.45 236.52,-296.73 17.35,-13.48 89.94,-64.54 111.25,-69.36 53.71,106.39 141.91,236.2 211.45,310.12 -11.93,37.73 -229.72,277.96 191.18,516.57 179.8,101.93 446.63,152.57 688.2,152.57 301.2,-0.01 756.96,-85.75 911.36,-347.56 70.14,-118.94 36.75,-224.38 -27.51,-315.77zm268.87 -427.31c7.92,-32.18 43.15,-88.91 45.05,-117.2 38.93,7.34 249.97,117.78 260.04,139.04l-214.15 28.13c-69.05,-54.93 -36.69,-23.6 -90.94,-49.97zm321.41 273.67l211.6 -70.01c12.48,23.43 65.14,76.36 99.88,142.59 29.22,55.73 52.33,111.14 63.51,181.54 70.45,443.59 -443.74,742.12 -821.75,869.4 -81.62,27.49 -161.46,135.66 -509.84,219.86 -432.98,104.66 -1029.56,79.48 -1427.79,-154.64 -101.66,-59.75 -29.15,-34.97 -162.04,-82.87 -242.63,-87.45 -475.51,-222.95 -604.06,-370.58 -188.18,-216.11 -244.41,-450.04 -77.48,-707.87 91.85,-141.86 243.36,-256.15 391.46,-338.02 29.51,-16.31 137.22,-76.14 166.85,-78.23l47.75 114.62c-43.14,21.53 -67.23,12.28 -121.33,85.44 -28.69,38.8 -57.2,90.74 -86.95,119.47 -65.57,63.32 -200.62,85.2 -228.73,184.38 -17.04,60.12 1.92,128.92 7.14,187.72 6.05,68.23 -14.08,125.15 -13.88,191.74 0.42,142.94 116.33,150.78 205.25,214.83 92.42,66.57 105.33,174.56 198.55,214.31 102.03,43.51 195.54,-15.41 320.91,91.99 119.94,102.74 123.32,93.39 305.68,71.27 161.71,-19.61 200.41,88.5 321.22,92.94 116.21,4.28 168.6,-91.79 335.42,-36.26 168.74,56.17 165.4,46.42 309.87,-27.44 151.02,-77.21 239.97,20.06 351.48,-22.89 106.93,-41.17 125.99,-133.06 270.68,-145.99 181.31,-16.19 193.03,-13.87 276.05,-138.36 36.11,-54.15 46.3,-72.79 98.98,-107.21 41.87,-27.35 95.39,-48 133.44,-77.88 110.49,-86.75 30.37,-203.01 47.39,-337.22 10.48,-82.54 35.02,-187.41 -45.31,-245 -16.43,-11.78 -51.93,-30.02 -63.95,-41.63zm450.55 -712.04c6.93,41.16 -12.29,81.68 -26.5,113.13 -6.37,14.08 -14.88,28.66 -22.6,44.52 -11.93,24.5 -74.82,96.22 -97,114.78 -54.13,45.32 -176.24,130.67 -245.8,78.09 -38.07,-28.78 -51.81,-30 -88.45,-50.69 -17.39,-9.83 -28.71,-16.14 -45.21,-26.24 -7.12,-4.36 -2.53,-1.21 -8.37,-5.92l-71.17 -59.48 11.6 -4.38 -17.78 -12.8c-21.49,-19.09 -24.51,-50.85 -24.29,-77.37 48.26,9.07 67.55,35.75 170.48,35.91 104.58,0.16 223.59,-39.54 292.38,-110.16 61.16,-62.8 56.62,-118.85 68.83,-136.98l-4.33 -17.44 11.5 3.79c-9.99,-17.19 -9.54,-16.03 -12.68,-40.8 -1.99,-15.61 -6.63,-29.94 -9.12,-44.57 34.96,10.17 71.52,48.33 89.3,74.26 16.94,24.7 47.31,89.11 29.21,122.35zm-410.15 -377.86c0,0 0,0 0,0l0 0zm-2521.52 -217.71c36.61,-36.55 85.68,-38.25 147.1,-23.32 3.81,-108.53 128.75,-119.85 197.31,-73.43 14.63,-19.54 8.09,-78.85 96.18,-94.36 28.88,-5.09 59.01,-2.76 84.79,7.08 30.32,11.58 32.8,19.83 54.29,40.24 7.72,-14.78 12.08,-84.83 110.36,-94.78 67.86,-6.87 116.01,22.53 139.31,65.25 23.71,-38.1 20.43,-53.48 68.05,-74.11 40.05,-17.35 77.35,-14.32 120.74,-6.26 -2.35,30.01 -43.89,159.65 -55.68,180.82 -167.07,3.26 -329.13,21.52 -485.84,58.79 -96.27,22.89 -319.76,96.92 -376.83,164.58 10.32,13.57 22.16,20.02 38.18,29.56 28.8,-11.04 29.14,-22.3 90.66,-39.37 151.25,-41.95 100.03,-46.12 175.03,-85.11 33.48,-17.41 68.73,-20.49 113.61,-18.2 122.73,6.28 120.71,-47.89 201.42,-53.14 44.79,-2.92 75.27,7.19 115.37,10.52 57.36,4.75 67.31,-4.72 110.18,-16.34 -11.71,76.37 -32.12,95.9 -119.88,90.73 -37.87,-2.23 -55.12,-16.04 -99.12,-8.29 -61.31,10.79 -102.87,49.44 -169.35,51.61 -181.38,5.94 -127.38,46.82 -246.4,84.69 -10.9,3.47 -78.6,20.86 -88.43,22.34 10.65,19.31 -4.56,1.9 8.52,12.21 0.32,0.25 11.15,4.99 13.35,5.86 24.54,9.58 53.49,26.08 77.48,28.51 61.11,-55.93 50.22,-47.63 146.54,-74.33 68.23,-18.92 64.69,-66.78 164.13,-57.74 105.44,9.58 109.95,-39.98 179.24,-37.36 34.12,1.3 59.34,16.59 96.06,14.61 33.72,-1.81 58.52,-19.52 90.91,-24.14 73.73,-10.53 42.62,30.06 196.96,23.14 134.92,-6.05 102.67,32.31 199.19,24.1 108.41,-9.22 94.01,33.75 163.76,56.18 46.16,14.84 113.62,-5.1 154.71,70.42 23.39,-4.1 83,-26.56 96.84,-43.24 -28.29,-19.12 -74.03,-13.55 -110.77,-22.99 -73.76,-18.96 -89.4,-96.71 -182.1,-89.14 -46.93,3.84 -74.24,16.54 -120.66,-2.6 -78.06,-32.19 -63.16,-67.21 -204.72,-42.92 -120.83,20.74 -121.55,-29.52 -206.49,-17.29l-36.17 -9.32 99.75 -49.48c16.39,-6.45 94.84,17.08 132.46,13.59 54.87,-5.09 68.08,-22 131.83,-2.55 37.15,11.32 70.21,31.61 112.48,40.94 90.15,19.91 74.88,-31.51 244.49,53 98.74,49.21 139.31,47.57 164.97,60.49 20.33,10.24 29.67,21.98 47.02,30.1 15.33,-9.38 26.78,-16.09 37.6,-29.05 -55.31,-63.19 -245.47,-130.4 -350.09,-157.77 -150.55,-39.4 -285.78,-51.17 -446.51,-63.55 8.49,-17.94 42.31,-43.42 56.63,-62.51 32.45,-1.52 41.12,-1.23 59.17,-17.37 0.02,-19.92 -1.18,-18.54 -13.54,-30.08 9.29,-25.48 34.22,-43.72 43.9,-74.5 32.2,3.02 56.05,17.02 74.22,32.11 23.75,19.72 21.55,32.25 34.48,64.92l11.56 -10.37c68.8,-77.57 237.65,-63.55 245.39,62.44 21.76,-9.43 24.13,-20.95 56.17,-30.63 73.37,-22.16 180.95,10.61 170.64,107.52 66.16,-10.62 72.88,-31.57 158.64,15.22 12.83,-72.1 -61.83,-146.64 -91.72,-170.06 -145.94,-114.35 -400.62,-191.92 -586.73,-206.26l7.24 -25.58c134.84,-1.68 423.47,89.92 547.75,157.82 194.36,106.18 267.34,265.55 83.9,420.88 -114.35,96.82 -331.04,165.28 -512.77,197.94 -387.89,69.71 -880.37,53.19 -1244.14,-93.31 -130.29,-52.48 -381.99,-195.29 -259.25,-387.38 80,-125.19 272.52,-202.48 459.35,-251.16 95.89,-24.99 196.9,-41.1 301.59,-52.79 78.65,-8.78 263.33,-24.25 336.65,-12.8 1.13,34.97 -22.45,23.67 -58.77,23.62 -189.68,-0.29 -410.24,24.94 -588.94,76.04 -98.47,28.16 -181.09,60.82 -263.8,110.26 -52.99,31.67 -174.8,124.8 -149.45,226.85zm1006.99 -465.94c-216.1,-0.22 -465.8,27.26 -661.97,83.38 -187.19,53.56 -399.71,143.38 -464.6,285.37 -22.09,48.35 -21.47,107.04 -0.31,154.81 21.66,48.89 52.6,75.83 82.78,104.66 174.86,167.11 612.89,243.08 864.72,258.83 356.16,22.27 966.63,-27.53 1228.42,-258.67 190.53,-168.22 81.65,-330.6 -112.59,-439.31 -136.9,-76.63 -403.21,-153.74 -583.85,-166.21l4.16 -29.67c145.96,9.39 320.22,53.95 448.83,96.18 143.13,47.01 262.41,112.22 344.72,197.81 53.24,55.36 67.82,96.21 72.58,194.73 4.39,90.82 6.04,183.12 -0.09,273.91 -24.72,366.6 -133.26,715.13 -345.47,1006.78l-89.92 111.8c-15.65,15.71 -22.57,22.47 -35.59,36.42 -244.29,261.77 -621.01,419.05 -1011.76,305.44 -223.65,-65.03 -373.75,-186.06 -527.6,-346.58 -80.4,-83.88 -180.57,-245.34 -232.17,-348.83 -141.43,-283.7 -214.17,-631.01 -202.24,-957.41 3.74,-102.17 -5.09,-164.15 45.81,-239.6 172.93,-256.38 778.85,-346.77 1104.12,-351.49l134.24 0.61 -1.08 9.98 -1.52 14.07c-5.45,2.09 -3.23,2.97 -11.84,4.18l-47.78 -1.19zm-527.32 -121.82c-192.37,29.8 -379.36,97.63 -549.38,191.1 -66.43,33.48 -127.79,92.64 -176.8,148.05 -52.1,58.91 -92.51,157.49 -94.2,235.86 -1.64,75.58 -8.29,137.92 -3.4,211.04 2.66,39.89 5.43,180.07 16.08,209.52l32.04 199.72c6.12,33.99 12.68,66.67 19.96,100.2 4.66,21.44 24.59,80.03 15.47,94.45 -6.43,-8.67 0.4,0.84 -4.83,-8.92 -7.14,-13.32 0.6,-3.53 -7.2,-11.8l4.14 28.22c-23.4,4.62 -130.61,72.79 -145.71,80.44l-91.19 52.67c-98.49,62.68 -184.97,112.91 -258.29,207.38 -7.03,9.06 -43.63,41.68 -65.55,73.74 -51.48,75.3 -65.11,98.62 -98.66,183.33 -13.03,32.91 -26.95,47.02 -34.41,105.67 -3.22,25.33 -4.15,63.29 -13.69,83.16l0 111.35c13.1,0 5.06,15.19 5.23,27.58 0.21,15.64 -1.14,19.03 7.02,28.07 -4.01,-8.65 24.25,97.17 42.59,137.75 37.19,82.31 94.81,171.36 156.4,232.68 203.19,202.29 324.18,260.14 596.52,382.95 182.57,82.33 339.81,178.24 539.83,238.07 217.65,65.12 452.12,90.3 697.77,85.83 239.04,-4.36 446.57,-56.36 653.93,-125.02 94.18,-31.19 189.51,-71.02 278.45,-110.34 133.42,-58.98 413.36,-185.17 522.21,-260.51 101.04,-69.94 130.44,-89.23 219.26,-174.44 60.5,-58.01 125.71,-136.7 169.27,-219.72 23.85,-45.43 41.78,-85.4 57.58,-138.98 7.68,-26.06 28.27,-162.55 30.6,-166.23l-1.59 -9.29c-11.01,-85.15 -22.56,-166.77 -63.94,-259.47l-34.35 -73.54c15.87,-0.06 0.32,1.83 7.45,-9.28 -25.67,2.04 -46.91,-55.64 -47.37,-57.94 244.08,-121.74 450.24,-313.88 471.47,-605.17 2.52,-34.45 5.08,-23.2 9.27,-28.04 5.14,-60.79 -40.37,-227.56 -75.72,-301 -17.87,-37.12 -59.98,-103.19 -86.19,-129.43 -42.13,-42.17 -23.87,-43.41 -95.72,-95.45l-30.49 -27.63c-3.43,-3.13 -12.54,-9.66 -16.46,-12.49 -79.83,-57.53 -204.56,-109.8 -303.44,-126.85 -124.88,-21.53 -261.69,-2.34 -372.18,47.86 -7.09,-17.6 -8.34,-50.62 -16.77,-73.59 -11.57,-31.51 -35.91,-102.79 -60.07,-127.16 -59.7,-68.69 -73.48,-82.14 -148.26,-134.55 -200.92,-140.8 -479.99,-178.77 -717.51,-225.39 -281.21,-32.8 -518.6,-54.55 -939.17,15.54z"/>
   </g>
   <path class="fil1" d="M2038.54 583.03c115.58,-2.23 242.14,15.75 304.82,21.67l4.16 -29.67c-98.18,-9.82 -197.39,-20.84 -294.54,-20.23l-134.24 -0.61c-325.27,4.72 -931.19,95.11 -1104.12,351.49 -50.9,75.45 -42.07,137.43 -45.81,239.6 -11.93,326.4 60.81,673.71 202.24,957.41 51.6,103.49 151.77,264.95 232.17,348.83 153.85,160.52 303.95,281.55 527.6,346.58 390.75,113.61 767.47,-43.67 1011.76,-305.44 13.02,-13.95 19.94,-20.71 35.59,-36.42l89.92 -111.8c212.21,-291.65 320.75,-640.18 345.47,-1006.78 6.13,-90.79 4.48,-183.09 0.09,-273.91 -4.76,-98.52 -19.34,-139.37 -72.58,-194.73 -82.31,-85.59 -201.59,-150.8 -344.72,-197.81 -128.61,-42.23 -302.87,-86.79 -448.83,-96.18l-4.16 29.67c180.64,12.47 446.95,89.58 583.85,166.21 194.24,108.71 303.12,271.09 112.59,439.31 -261.79,231.14 -872.26,280.94 -1228.42,258.67 -251.83,-15.75 -689.86,-91.72 -864.72,-258.83 -30.18,-28.83 -61.12,-55.77 -82.78,-104.66 -21.16,-47.77 -21.78,-106.46 0.31,-154.81 64.89,-141.99 277.41,-231.81 464.6,-285.37 196.17,-56.12 445.87,-83.6 661.97,-83.38l47.78 1.19z"/>
   <path class="fil1" d="M2874.61 2509.03c64.26,91.39 97.65,196.83 27.51,315.77 -154.4,261.81 -610.16,347.55 -911.36,347.56 -241.57,0 -508.4,-50.64 -688.2,-152.57 -420.9,-238.61 -203.11,-478.84 -191.18,-516.57 -69.54,-73.92 -157.74,-203.73 -211.45,-310.12 -21.31,4.82 -93.9,55.88 -111.25,69.36 -99.43,77.28 -190.68,163.94 -236.52,296.73 -74.95,217.09 66.22,413.59 169.28,499.03 138.71,115 285.42,196.74 462,253.62 515.98,166.19 1177.88,174.83 1686.14,-24.41 265.33,-104 626.29,-320.11 581.04,-653.55 -10.47,-77.1 -66.97,-205.31 -115.5,-238.2 -83.59,29.23 -238.65,113.43 -321.75,110.82 -56.55,-1.78 -72.24,-25.16 -100.76,-45.38 -13.98,13.16 -29.8,28.96 -38,47.91z"/>
   <path class="fil1" d="M3464.89 2355.39c12.02,11.61 47.52,29.85 63.95,41.63 80.33,57.59 55.79,162.46 45.31,245 -17.02,134.21 63.1,250.47 -47.39,337.22 -38.05,29.88 -91.57,50.53 -133.44,77.88 -52.68,34.42 -62.87,53.06 -98.98,107.21 -83.02,124.49 -94.74,122.17 -276.05,138.36 -144.69,12.93 -163.75,104.82 -270.68,145.99 -111.51,42.95 -200.46,-54.32 -351.48,22.89 -144.47,73.86 -141.13,83.61 -309.87,27.44 -166.82,-55.53 -219.21,40.54 -335.42,36.26 -120.81,-4.44 -159.51,-112.55 -321.22,-92.94 -182.36,22.12 -185.74,31.47 -305.68,-71.27 -125.37,-107.4 -218.88,-48.48 -320.91,-91.99 -93.22,-39.75 -106.13,-147.74 -198.55,-214.31 -88.92,-64.05 -204.83,-71.89 -205.25,-214.83 -0.2,-66.59 19.93,-123.51 13.88,-191.74 -5.22,-58.8 -24.18,-127.6 -7.14,-187.72 28.11,-99.18 163.16,-121.06 228.73,-184.38 29.75,-28.73 58.26,-80.67 86.95,-119.47 54.1,-73.16 78.19,-63.91 121.33,-85.44l-47.75 -114.62c-29.63,2.09 -137.34,61.92 -166.85,78.23 -148.1,81.87 -299.61,196.16 -391.46,338.02 -166.93,257.83 -110.7,491.76 77.48,707.87 128.55,147.63 361.43,283.13 604.06,370.58 132.89,47.9 60.38,23.12 162.04,82.87 398.23,234.12 994.81,259.3 1427.79,154.64 348.38,-84.2 428.22,-192.37 509.84,-219.86 378.01,-127.28 892.2,-425.81 821.75,-869.4 -11.18,-70.4 -34.29,-125.81 -63.51,-181.54 -34.74,-66.23 -87.4,-119.16 -99.88,-142.59l-211.6 70.01z"/>
   <path class="fil1" d="M1622.65 1390.33c78.36,-54.13 76.88,-41.54 178.24,-27.26 95.62,13.48 117.41,-34.44 189.78,-34.95 70.44,-0.49 94.14,46.2 188.46,35.05 54.19,-6.4 116.93,-36.5 182.05,27.16 -1.06,0.78 -2.6,0.73 -3.19,2.3 -2.27,6.04 -79.43,13.37 -86.15,14.16 -61.04,7.11 -101.34,-41.31 -281.08,-40.85 -181.1,0.45 -213.37,48.42 -277.01,40.86 -24.82,-2.96 -73.1,-4.29 -91.1,-16.47zm-252.34 -51.27c4.53,-7.47 3.86,-12.8 28.94,-21.61 34.7,-12.2 31.67,2.79 108.67,-35.29 114.91,-56.85 88.31,-21.03 158.12,-35.22 56.4,-11.47 86.43,-41.83 154.08,-30.66 68.43,11.3 116.77,-15.38 180.42,-12.53 30.78,1.37 49.8,13.6 81.39,15.18 30.55,1.52 61.01,-6.18 91.26,-8.31 73.53,-5.18 94.68,37.44 158.27,40.75 99.33,5.17 45.58,-30.25 150.7,31.71 83.41,49.16 116.22,11.73 145.46,49.64 -13.97,8.64 -118.64,43.26 -158.89,30.14 -57.3,-18.69 -86.2,-46.85 -133.04,-67.55 -67.62,-29.88 -98.07,-5.45 -162.64,1.62 -72.65,7.94 -103.12,-25.86 -165.23,-34.92 -68.45,-9.99 -102.11,29.55 -156.41,35.13 -64.79,6.65 -119.6,-26.2 -182.84,-8.96 -93.78,25.58 -118.45,97.68 -219.8,71.81 -26.21,-6.69 -52.98,-14.59 -78.46,-20.93zm-363.36 -246.41c10.03,-30.1 51.89,-28.47 67.52,-4.8 -4.17,18.14 -10.22,21.9 -30,22.76 -22.45,0.97 -30.9,-4.36 -37.52,-17.96zm1834.66 -4.8c13.24,-24.27 64.02,-29.49 74.72,4.8 -6.93,14.67 -18,22.43 -35.46,17.63 -9.93,-2.73 -35.37,-18.69 -39.26,-22.43zm-1666.36 -81.62c13.89,-31.08 59.5,-26.58 72.21,0 -5.43,14.72 -12.8,21.14 -34.48,21.68 -30.5,0.77 -27.4,-10.05 -37.73,-21.68zm1467.43 -14.4c16.08,-28.94 62.4,-28.33 79.7,0 -10.41,38.73 -73.35,34.27 -79.7,0zm-1261.25 -58.47c19.66,-22.4 55.46,-21.76 75.86,-0.16 -3.07,22.06 -13.04,28.84 -38,28.66 -24.08,-0.19 -35.17,-7.72 -37.86,-28.5zm1021.13 -8.75c18.22,-32 74.32,-31.58 84.37,4.8 -18.98,30.06 -75.81,32.33 -84.37,-4.8zm-787.01 -35.24c21.26,-16.65 67.2,-27.16 79.49,11.23 -19.79,32.04 -80.58,30.8 -79.49,-11.23zm250.49 -7.97c13.69,-32.61 72.73,-33.88 84.75,0 -5.9,17.37 -17.43,25.07 -41.66,25.32 -31.09,0.31 -32.52,-8.34 -43.09,-25.32zm-882.27 166.38c-25.35,-102.05 96.46,-195.18 149.45,-226.85 82.71,-49.44 165.33,-82.1 263.8,-110.26 178.7,-51.1 399.26,-76.33 588.94,-76.04 104.9,1.37 296.45,21.08 338.45,22.76l7.24 -25.58c-53.02,-6.9 -226.41,-15.9 -286.92,-20.8 -76.9,-9.91 -258,4.02 -336.65,12.8 -104.69,11.69 -205.7,27.8 -301.59,52.79 -186.83,48.68 -379.35,125.97 -459.35,251.16 -122.74,192.09 128.96,334.9 259.25,387.38 363.77,146.5 856.25,163.02 1244.14,93.31 181.73,-32.66 398.42,-101.12 512.77,-197.94 183.44,-155.33 110.46,-314.7 -83.9,-420.88 -124.28,-67.9 -412.91,-159.5 -547.75,-157.82l-7.24 25.58c186.11,14.34 440.79,91.91 586.73,206.26 29.89,23.42 104.55,97.96 91.72,170.06 -85.76,-46.79 -92.48,-25.84 -158.64,-15.22 10.31,-96.91 -97.27,-129.68 -170.64,-107.52 -32.04,9.68 -34.41,21.2 -56.17,30.63 -7.74,-125.99 -176.59,-140.01 -245.39,-62.44l-11.56 10.37c-12.93,-32.67 -10.73,-45.2 -34.48,-64.92 -18.17,-15.09 -42.02,-29.09 -74.22,-32.11 -111.6,-11.7 -139.59,0.16 -178.23,89.1 -7.59,10.12 -8.52,-70.38 -71.63,-87.51l-55.68 180.82c-2.31,7.55 161.75,-2.94 159.38,2.05 160.73,12.38 295.96,24.15 446.51,63.55 104.62,27.37 294.78,94.58 350.09,157.77 -10.82,12.96 -22.27,19.67 -37.6,29.05 -17.35,-8.12 -26.69,-19.86 -47.02,-30.1 -25.66,-12.92 -66.23,-11.28 -164.97,-60.49 -169.61,-84.51 -154.34,-33.09 -244.49,-53 -42.27,-9.33 -75.33,-29.62 -112.48,-40.94 -63.75,-19.45 -76.96,-2.54 -131.83,2.55 -37.62,3.49 -116.07,-20.04 -132.46,-13.59 -52.76,15.41 -82.51,-12.89 -103.35,-5.56l-119.88 90.73c104.18,6.18 82.89,-31.38 159.65,-26.37 84.94,-12.23 85.66,38.03 206.49,17.29 141.56,-24.29 126.66,10.73 204.72,42.92 46.42,19.14 73.73,6.44 120.66,2.6 92.7,-7.57 108.34,70.18 182.1,89.14 36.74,9.44 82.48,3.87 110.77,22.99 -13.84,16.68 -73.45,39.14 -96.84,43.24 -41.09,-75.52 -108.55,-55.58 -154.71,-70.42 -69.75,-22.43 -55.35,-65.4 -163.76,-56.18 -96.52,8.21 -64.27,-30.15 -199.19,-24.1 -154.34,6.92 -123.23,-33.67 -196.96,-23.14 -32.39,4.62 -57.19,22.33 -90.91,24.14 -36.72,1.98 -61.94,-13.31 -96.06,-14.61 -69.29,-2.62 -73.8,46.94 -179.24,37.36 -99.44,-9.04 -95.9,38.82 -164.13,57.74 -96.32,26.7 -85.43,18.4 -146.54,74.33 -23.99,-2.43 -52.94,-18.93 -77.48,-28.51 -2.2,-0.87 -13.03,-5.61 -13.35,-5.86 -13.08,-10.31 2.13,7.1 -8.52,-12.21 9.83,-1.48 77.53,-18.87 88.43,-22.34 119.02,-37.87 65.02,-78.75 246.4,-84.69 66.48,-2.17 108.04,-40.82 169.35,-51.61 44,-7.75 61.25,6.06 99.12,8.29l119.88 -90.73c-42.87,11.62 -52.82,21.09 -110.18,16.34 -40.1,-3.33 -70.58,-13.44 -115.37,-10.52 -80.71,5.25 -78.69,59.42 -201.42,53.14 -44.88,-2.29 -80.13,0.79 -113.61,18.2 -75,38.99 -23.78,43.16 -175.03,85.11 -61.52,17.07 -61.86,28.33 -90.66,39.37 -16.02,-9.54 -27.86,-15.99 -38.18,-29.56 57.07,-67.66 280.56,-141.69 376.83,-164.58 156.71,-37.27 318.77,-55.53 485.84,-58.79l55.68 -180.82c-43.39,-8.06 -80.69,-11.09 -120.74,6.26 -47.62,20.63 -44.34,36.01 -68.05,74.11 -23.3,-42.72 -71.45,-72.12 -139.31,-65.25 -98.28,9.95 -102.64,80 -110.36,94.78 -21.49,-20.41 -23.97,-28.66 -54.29,-40.24 -25.78,-9.84 -55.91,-12.17 -84.79,-7.08 -88.09,15.51 -81.55,74.82 -96.18,94.36 -68.56,-46.42 -193.5,-35.1 -197.31,73.43 -61.42,-14.93 -110.49,-13.23 -147.1,23.32z"/>
   <path class="fil1" d="M1164.05 2566.92c-226.38,434.78 781.47,749.8 1431.06,436.32 336.51,-162.38 262.64,-411.74 220.38,-436.06 -159.46,173.97 -457.54,380.55 -824.73,378.37 -255.24,-1.52 -534.9,-113.95 -710.11,-273.83l-116.6 -104.8z"/>
   <path class="fil1" d="M20.07 2810.85c-8.42,97.53 55.81,235.97 97.23,304.09 61.67,101.41 150.04,192.13 238.45,261.03 140.93,109.82 270.51,182.3 442.54,253.53 88.92,36.82 189.11,85.18 272.69,130.79 303.97,165.86 733.79,225.91 1087.82,198.7l179.95 -22.29c352.55,-61.59 633.96,-193.34 950.2,-345.55 92,-44.28 181.96,-89.19 256.18,-142.31 194.82,-139.44 381.31,-319.06 429.33,-569.18 19.57,-101.95 2.92,-155.08 10.02,-186.77 -2.33,3.68 -22.92,140.17 -30.6,166.23 -15.8,53.58 -33.73,93.55 -57.58,138.98 -43.56,83.02 -108.77,161.71 -169.27,219.72 -88.82,85.21 -118.22,104.5 -219.26,174.44 -108.85,75.34 -388.79,201.53 -522.21,260.51 -88.94,39.32 -184.27,79.15 -278.45,110.34 -207.36,68.66 -414.89,120.66 -653.93,125.02 -245.65,4.47 -480.12,-20.71 -697.77,-85.83 -200.02,-59.83 -357.26,-155.74 -539.83,-238.07 -272.34,-122.81 -393.33,-180.66 -596.52,-382.95 -61.59,-61.32 -119.21,-150.37 -156.4,-232.68 -18.34,-40.58 -46.6,-146.4 -42.59,-137.75z"/>
   <path class="fil0" d="M1370.31 1339.06c25.48,6.34 52.25,14.24 78.46,20.93 101.35,25.87 126.02,-46.23 219.8,-71.81 63.24,-17.24 118.05,15.61 182.84,8.96 54.3,-5.58 87.96,-45.12 156.41,-35.13 62.11,9.06 92.58,42.86 165.23,34.92 64.57,-7.07 95.02,-31.5 162.64,-1.62 46.84,20.7 75.74,48.86 133.04,67.55 40.25,13.12 144.92,-21.5 158.89,-30.14 -29.24,-37.91 -62.05,-0.48 -145.46,-49.64 -105.12,-61.96 -51.37,-26.54 -150.7,-31.71 -63.59,-3.31 -84.74,-45.93 -158.27,-40.75 -30.25,2.13 -60.71,9.83 -91.26,8.31 -31.59,-1.58 -50.61,-13.81 -81.39,-15.18 -63.65,-2.85 -111.99,23.83 -180.42,12.53 -67.65,-11.17 -97.68,19.19 -154.08,30.66 -69.81,14.19 -43.21,-21.63 -158.12,35.22 -77,38.08 -73.97,23.09 -108.67,35.29 -25.08,8.81 -24.41,14.14 -28.94,21.61z"/>
   <path class="fil1" d="M3321.94 1847.16c42.84,1.41 169.12,63.95 348.27,-30.46 71.08,-37.46 127.63,-97.25 142.31,-174.26 6.75,-35.39 -4.26,-70.75 -0.96,-96.68 -12.21,18.13 -7.67,74.18 -68.83,136.98 -68.79,70.62 -187.8,110.32 -292.38,110.16 -102.93,-0.16 -122.22,-26.84 -170.48,-35.91 -0.22,26.52 2.8,58.28 24.29,77.37l17.78 12.8z"/>
   <path class="fil1" d="M3892.05 2341.31c8.74,-10.69 28.8,-17.36 42.61,-25.07 64.65,-36.08 149.01,-101.49 200.45,-154.66 62.17,-64.27 134.61,-174.08 160.19,-262.4 47.52,-164.03 17.98,-192.66 30.12,-249.02 -4.19,4.84 -6.75,-6.41 -9.27,28.04 -21.23,291.29 -227.39,483.43 -471.47,605.17 0.46,2.3 21.7,59.98 47.37,57.94z"/>
   <path class="fil1" d="M3143.48 2081.72c54.25,26.37 21.89,-4.96 90.94,49.97l214.15 -28.13c-10.07,-21.26 -221.11,-131.7 -260.04,-139.04 -1.9,28.29 -37.13,85.02 -45.05,117.2z"/>
   <path class="fil0" d="M1622.65 1390.33c18,12.18 66.28,13.51 91.1,16.47 63.64,7.56 95.91,-40.41 277.01,-40.86 179.74,-0.46 220.04,47.96 281.08,40.85 6.72,-0.79 83.88,-8.12 86.15,-14.16 0.59,-1.57 2.13,-1.52 3.19,-2.3 -65.12,-63.66 -127.86,-33.56 -182.05,-27.16 -94.32,11.15 -118.02,-35.54 -188.46,-35.05 -72.37,0.51 -94.16,48.43 -189.78,34.95 -101.36,-14.28 -99.88,-26.87 -178.24,27.26z"/>
   <path class="fil1" d="M3818.73 1532.11c11.6,2.1 2.28,-2.12 16.75,6.1 19.53,11.08 53.63,49.94 65.12,69.36l14.84 35.78c18.1,-33.24 -12.27,-97.65 -29.21,-122.35 -17.78,-25.93 -54.34,-64.09 -89.3,-74.26 2.49,14.63 7.13,28.96 9.12,44.57 3.14,24.77 2.69,23.61 12.68,40.8z"/>
   <path class="fil0" d="M1866.04 881.4c10.57,16.98 12,25.63 43.09,25.32 24.23,-0.25 35.76,-7.95 41.66,-25.32 -12.02,-33.88 -71.06,-32.61 -84.75,0z"/>
   <path class="fil0" d="M2402.56 924.61c8.56,37.13 65.39,34.86 84.37,4.8 -10.05,-36.38 -66.15,-36.8 -84.37,-4.8z"/>
   <path class="fil0" d="M1615.55 889.37c-1.09,42.03 59.7,43.27 79.49,11.23 -12.29,-38.39 -58.23,-27.88 -79.49,-11.23z"/>
   <path class="fil0" d="M2642.68 991.83c6.35,34.27 69.29,38.73 79.7,0 -17.3,-28.33 -63.62,-28.94 -79.7,0z"/>
   <path class="fil0" d="M1381.43 933.36c2.69,20.78 13.78,28.31 37.86,28.5 24.96,0.18 34.93,-6.6 38,-28.66 -20.4,-21.6 -56.2,-22.24 -75.86,0.16z"/>
   <path class="fil0" d="M1175.25 1006.23c10.33,11.63 7.23,22.45 37.73,21.68 21.68,-0.54 29.05,-6.96 34.48,-21.68 -12.71,-26.58 -58.32,-31.08 -72.21,0z"/>
   <path class="fil0" d="M2880.87 1110.28c17.46,4.8 28.53,-2.96 35.46,-17.63 -10.7,-34.29 -61.48,-29.07 -74.72,-4.8 3.89,3.74 29.33,19.7 39.26,22.43z"/>
   <path class="fil0" d="M1044.47 1110.61c19.78,-0.86 25.83,-4.62 30,-22.76 -15.63,-23.67 -57.49,-25.3 -67.52,4.8 6.62,13.6 15.07,18.93 37.52,17.96z"/>
   <path class="fil1" d="M711.18 1829.24c7.8,8.27 0.06,-1.52 7.2,11.8 5.23,9.76 -1.6,0.25 4.83,8.92 9.12,-14.42 -10.81,-73.01 -15.47,-94.45 -7.28,-33.53 -13.84,-66.21 -19.96,-100.2l-32.04 -199.72c8.32,26.52 8.5,64.24 11.47,92.96 3.39,32.91 9.33,62.87 13.77,96.14 5.75,43.04 32.51,149.76 30.2,184.55z"/>
   <path class="fil1" d="M3523.09 1086.44c-414.95,57.92 -367.05,611.53 -53.05,578.62 257.4,-26.99 257.58,-262.18 71.1,-223.55 -149.2,30.91 -121.12,138.89 -63.4,120.9 14.1,-4.4 30.03,-19.64 41.94,-26.93 18.38,-11.24 48.8,-10.65 33.85,18.56 -28.31,55.31 -240.93,86.39 -246.51,-91.76 -2.54,-80.83 54.22,-139.31 109.25,-168.67 183.22,-97.77 710.05,12.55 624.65,421.12 -32.12,153.66 -138.66,261.9 -232.1,329.66 -121.93,88.41 -236.42,118.45 -418.92,140.15 -157.85,18.77 -351.33,32.95 -417.65,143.09 -19.65,32.64 -26.72,81.52 5.3,99.81 35.79,20.45 77.3,-4.86 106.11,-16.99 275.71,-116.09 606.6,-180.91 816.27,-308.9 113.36,-69.19 211.08,-171.3 255.87,-301.16 26.45,-76.7 35.95,-164.29 20.39,-250.75 -47.31,-262.74 -320.08,-509.68 -653.1,-463.2z"/>
   <path class="fil0" d="M2140.16 885.41c8.57,37.13 65.4,34.86 84.37,4.8 -10.05,-36.38 -66.14,-36.8 -84.37,-4.8z"/>
   <path class="fil2" d="M860.35 1824.81c596.94,516.56 1584.39,516.56 2265.04,0"/>
   <path class="fil3" d="M1359.62 2122.71l81.83 -358.55 0.47 0.11 129.48 315.18 -27.53 -13.18 251.45 -221.34 0.94 0.21 -81.84 358.55 -67.87 -15.49 46.9 -205.49 -3.79 36.07 -154.38 139.1 -0.93 -0.21 -82.01 -193.05 19.07 -29.63 -46.26 202.68 -65.53 -14.96zm523.99 93.74c-19.51,-0.39 -37.12,-4.66 -52.8,-12.81 -15.7,-8.16 -28.01,-20.49 -36.97,-36.99 -8.95,-16.5 -13.19,-37.4 -12.69,-62.69 0.47,-23.67 5.69,-44.06 15.63,-61.15 9.94,-17.1 22.84,-30.2 38.72,-39.33 15.86,-9.13 32.6,-13.52 50.2,-13.18 20.81,0.42 36.49,4.18 47.08,11.27 10.58,7.09 19.31,14.87 26.19,23.33l-3.04 8.11 6.84 -30.6 62.41 1.24 -4.16 209.76 -67.21 -1.33 0.91 -45.6 4.99 14.5c-0.64,-0.01 -2.6,1.79 -5.87,5.41 -3.27,3.61 -8.08,7.85 -14.42,12.68 -6.34,4.84 -14.1,9 -23.3,12.5 -9.19,3.5 -20.03,5.13 -32.51,4.88zm20.29 -54.34c8,0.16 15.22,-0.9 21.67,-3.17 6.45,-2.27 12.12,-5.68 17.02,-10.24 4.89,-4.54 9.16,-10.3 12.82,-17.26l1.02 -51.36c-2.42,-7.09 -6.14,-13.18 -11.16,-18.24 -5.03,-5.06 -11.03,-9.02 -18.02,-11.88 -6.98,-2.86 -14.79,-4.37 -23.44,-4.55 -9.6,-0.19 -18.53,2.12 -26.78,6.91 -8.26,4.8 -14.88,11.47 -19.85,20.02 -4.97,8.55 -7.57,18.42 -7.79,29.62 -0.23,11.2 2.13,21.33 7.07,30.39 4.95,9.06 11.62,16.24 19.99,21.53 8.38,5.29 17.53,8.03 27.45,8.23zm148.9 -330.5l66.89 -6.63 37.33 376.97 -66.89 6.62 -37.33 -376.96zm275.73 351.24c-25.2,4.52 -47.4,3.62 -66.57,-2.7 -19.19,-6.32 -34.84,-17.01 -46.96,-32.07 -12.13,-15.07 -20.15,-33.46 -24.05,-55.21 -3.72,-20.79 -1.71,-40.5 6,-59.11 7.72,-18.63 19.67,-34.5 35.86,-47.64 16.17,-13.14 35.3,-21.69 57.34,-25.64 29.62,-5.3 55.5,-1.08 77.64,12.67 22.14,13.77 38.95,36.36 50.43,67.79l-151.54 79.83 -21.08 -33.3 109.23 -60.05 -12.61 8.61c-3.99,-7.75 -9.76,-14.11 -17.32,-19.1 -7.55,-4.98 -17.79,-6.32 -30.72,-4 -9.76,1.74 -17.93,5.57 -24.52,11.46 -6.58,5.89 -11.1,13.37 -13.55,22.42 -2.44,9.06 -2.64,19.26 -0.61,30.6 2.31,12.92 6.61,23.29 12.89,31.1 6.27,7.82 13.91,13.2 22.89,16.15 8.98,2.94 18.51,3.51 28.59,1.7 7.25,-1.3 14.04,-3.81 20.36,-7.54 6.32,-3.74 12.42,-8.25 18.31,-13.53l38.1 43.9c-9.9,8.28 -20.88,15.45 -32.97,21.52 -12.08,6.06 -23.79,10.11 -35.14,12.14zm321.97 -112.13c-6.73,9.75 -16.1,18.8 -28.12,27.15 -12,8.34 -24.44,14.47 -37.3,18.4 -22.96,7 -44.22,8.88 -63.78,5.65 -19.56,-3.24 -36.41,-11.32 -50.55,-24.24 -14.15,-12.93 -24.64,-30.55 -31.45,-52.91 -6.82,-22.34 -7.57,-42.95 -2.28,-61.79 5.29,-18.85 14.87,-34.91 28.73,-48.17 13.86,-13.25 29.82,-22.64 47.88,-28.15 18.07,-5.51 34.5,-7.84 49.31,-7.01 14.82,0.84 28.18,3.79 40.1,8.85l-18.62 50.86c-5.32,-2.06 -12.26,-3.71 -20.84,-4.94 -8.57,-1.23 -17.9,-0.31 -28.01,2.77 -8.88,2.71 -16.29,7.48 -22.24,14.31 -5.94,6.83 -9.86,14.88 -11.71,24.16 -1.86,9.26 -1.2,19.1 1.97,29.5 2.99,9.81 8.04,18.14 15.15,25 7.11,6.87 15.46,11.43 25.02,13.71 9.56,2.27 19.85,1.73 30.87,-1.64 7.04,-2.14 13.25,-5.12 18.61,-8.93 5.36,-3.81 9.62,-8.21 12.78,-13.19l44.48 30.61z"/>
  </g>
 </g>
</svg>
